<svg width="18" height="15" viewBox="0 0 18 15" fill="none" xmlns="http://www.w3.org/2000/svg">
<path d="M17.1875 7.05687C17.1875 7.45239 16.8936 7.77926 16.5123 7.83099L16.4062 7.83812L2.67292 7.8375L7.63436 12.7787C7.94011 13.0831 7.94118 13.5778 7.63674 13.8835C7.35998 14.1615 6.92601 14.1876 6.61968 13.9614L6.53189 13.8859L0.229807 7.61091C0.189503 7.57078 0.154497 7.52735 0.124786 7.48148C0.116396 7.46767 0.107853 7.45355 0.0997543 7.43914C0.0923061 7.42679 0.0855751 7.41397 0.0792255 7.40101C0.070406 7.38214 0.0617886 7.36265 0.0539646 7.34277C0.0476074 7.32743 0.0422993 7.31252 0.0374584 7.29749C0.031702 7.27885 0.0261097 7.25899 0.0212994 7.23882C0.0177231 7.22474 0.0148907 7.21119 0.0124207 7.19759C0.00894547 7.17735 0.00598907 7.1564 0.00387955 7.13521C0.00205612 7.11904 0.000961304 7.10303 0.000354767 7.087C0.000198364 7.07727 0 7.0671 0 7.05687L0.000392914 7.02661C0.000991821 7.01128 0.00203896 6.99596 0.00353432 6.98067L0 7.05687C0 7.00757 0.0045681 6.95934 0.0132999 6.91257C0.0153255 6.9014 0.0177383 6.88994 0.0204105 6.87852C0.0259609 6.855 0.0323734 6.83235 0.0397587 6.81015C0.0433826 6.79912 0.0476055 6.78733 0.0521183 6.77563C0.0612488 6.75212 0.0711708 6.72971 0.0820885 6.70789C0.0871601 6.69762 0.0928402 6.68688 0.0987873 6.67624C0.108551 6.65889 0.118608 6.6424 0.129244 6.62633C0.136747 6.61495 0.145056 6.60311 0.153732 6.59145L0.160494 6.58245C0.181541 6.55495 0.204376 6.52889 0.228823 6.50445L0.229761 6.50372L6.53184 0.22768C6.83757 -0.0767845 7.33223 -0.0757603 7.6367 0.229968C7.91348 0.507902 7.9378 0.941978 7.71023 1.24735L7.63441 1.33482L2.675 6.275L16.4062 6.27562C16.8377 6.27562 17.1875 6.6254 17.1875 7.05687Z" fill="#2F3548"/>
</svg>
