<svg width="24" height="24" viewBox="0 0 24 24" fill="none" xmlns="http://www.w3.org/2000/svg">
<path d="M6.90663 13.3813C8.55162 13.3813 9.86995 14.7124 9.86995 16.3691V20.3462C9.86995 21.9912 8.55162 23.3329 6.90663 23.3329H2.96332C1.32999 23.3329 0 21.9912 0 20.3462V16.3691C0 14.7124 1.32999 13.3813 2.96332 13.3813H6.90663ZM20.37 13.3813C22.0033 13.3813 23.3333 14.7124 23.3333 16.3691V20.3462C23.3333 21.9912 22.0033 23.3329 20.37 23.3329H16.4267C14.7817 23.3329 13.4634 21.9912 13.4634 20.3462V16.3691C13.4634 14.7124 14.7817 13.3813 16.4267 13.3813H20.37ZM6.90663 0C8.55162 0 9.86995 1.34166 9.86995 2.98782V6.96497C9.86995 8.62162 8.55162 9.95162 6.90663 9.95162H2.96332C1.32999 9.95162 0 8.62162 0 6.96497V2.98782C0 1.34166 1.32999 0 2.96332 0H6.90663ZM20.37 0C22.0033 0 23.3333 1.34166 23.3333 2.98782V6.96497C23.3333 8.62162 22.0033 9.95162 20.37 9.95162H16.4267C14.7817 9.95162 13.4634 8.62162 13.4634 6.96497V2.98782C13.4634 1.34166 14.7817 0 16.4267 0H20.37Z" fill="#967259"/>
</svg>
