<svg width="16" height="24" viewBox="0 0 16 24" fill="none" xmlns="http://www.w3.org/2000/svg">
<path d="M8.50694 0.563328C8.34908 0.220086 8.00592 8.14755e-05 7.62814 2.26348e-08C7.25028 -8.14302e-05 6.90688 0.219678 6.74902 0.562921C4.31562 5.85532 0 12.6672 0 16.3721C0 20.5849 3.41507 24 7.6279 24C11.8407 24 15.2559 20.5848 15.2559 16.3721C15.256 12.6675 10.9404 5.85573 8.50694 0.563328ZM7.30209 21.57C4.48374 21.57 2.19092 19.2772 2.19092 16.4589C2.19092 15.8966 2.64681 15.4407 3.20908 15.4407C3.77135 15.4407 4.22724 15.8966 4.22724 16.4589C4.22724 18.1543 5.60665 19.5337 7.30209 19.5337C7.86436 19.5337 8.32025 19.9896 8.32025 20.5519C8.32025 21.1142 7.86436 21.57 7.30209 21.57Z" fill="#DDDDDD"/>
</svg>
