<svg width="24" height="24" viewBox="0 0 24 24" fill="none" xmlns="http://www.w3.org/2000/svg">
<g clip-path="url(#clip0_34_245)">
<path d="M7.55273 11.4562C7.08202 10.4538 6.90959 9.37069 6.74013 8.30985C6.59198 7.37981 6.43887 6.41906 6.08163 5.54105C5.09461 3.1196 2.71032 1.49192 0.148146 1.49043L0.132786 1.48994C0.104048 1.59448 0.0827416 1.703 0.0753093 1.81845L0.0232829 2.67118C-0.246759 7.06617 1.85511 10.9597 5.45533 12.9516C6.11433 12.3763 6.81842 11.8823 7.55273 11.4562Z" fill="#DDDDDD"/>
<path d="M6.99926 5.16745C7.40011 6.1505 7.56214 7.16923 7.71921 8.15377C7.87875 9.15465 8.03285 10.1209 8.42924 10.987C10.1139 10.1768 11.9467 9.74726 13.8459 9.74726C13.8514 9.74726 13.8563 9.74775 13.8618 9.74775C13.1666 4.30629 8.75924 0.366165 3.06706 0.366165C2.81486 0.366165 2.56067 0.374093 2.30351 0.389949L1.45127 0.44247C1.27636 0.452876 1.11533 0.492515 0.966187 0.551478C3.59624 0.855708 5.96518 2.63105 6.99926 5.16745Z" fill="#DDDDDD"/>
<path d="M14.2478 16.8238C16.7079 19.2839 20.7114 19.2839 23.1715 16.8238L23.8048 16.2223C23.7007 15.9889 23.5659 15.763 23.3836 15.5569L22.8172 14.9177C20.4339 12.2232 17.2484 10.7382 13.8464 10.7382C10.4444 10.7382 7.2579 12.2227 4.8751 14.9177L4.30925 15.5569C3.952 15.9607 3.7543 16.4324 3.69781 16.9145L3.84151 16.8025C6.71832 13.9485 11.3804 13.9559 14.2478 16.8238Z" fill="#DDDDDD"/>
<path d="M23.8628 17.5334C22.4917 18.9049 20.6584 19.665 18.7097 19.665C16.7609 19.665 14.9271 18.9049 13.5472 17.5249C12.3545 16.3323 10.7511 15.6753 9.03377 15.6753C7.3164 15.6753 5.713 16.3323 4.52036 17.5249L4.47428 17.5646L3.84253 18.0581C3.94856 18.3252 4.10266 18.5813 4.30878 18.8147L4.87463 19.4544C7.25793 22.1488 10.4439 23.6333 13.846 23.6333C17.248 23.6333 20.434 22.1493 22.8168 19.4549L23.3831 18.8152C23.7538 18.396 23.9529 17.9035 23.9995 17.4031L23.8628 17.5334Z" fill="#DDDDDD"/>
</g>
<defs>
<clipPath id="clip0_34_245">
<rect width="24" height="24" fill="white"/>
</clipPath>
</defs>
</svg>
