<svg width="20" height="21" viewBox="0 0 20 21" fill="none" xmlns="http://www.w3.org/2000/svg">
<path fill-rule="evenodd" clip-rule="evenodd" d="M17.0673 6.99969C17.4975 7.0351 17.8183 7.41115 17.784 7.84135C17.7777 7.91219 17.2131 14.9028 16.8881 17.8351C16.686 19.6549 15.484 20.7622 13.6694 20.7955C12.2808 20.8195 10.9412 20.833 9.63188 20.833C8.22042 20.833 6.84437 20.8174 5.48292 20.7893C3.74125 20.7549 2.53604 19.6257 2.33917 17.8424C2.01104 14.8841 1.44958 7.91115 1.44437 7.84135C1.40896 7.41115 1.72979 7.03406 2.16 6.99969C2.58396 6.98823 2.96729 7.28615 3.00167 7.71531C3.00499 7.76053 3.23452 10.6081 3.48465 13.4254L3.53489 13.9877C3.66087 15.388 3.78857 16.7337 3.89229 17.6705C4.00375 18.6841 4.55062 19.207 5.51521 19.2268C8.11937 19.282 10.7767 19.2851 13.6412 19.233C14.6662 19.2132 15.2204 18.7007 15.335 17.6632C15.6579 14.7528 16.2204 7.78615 16.2267 7.71531C16.261 7.28615 16.6412 6.98615 17.0673 6.99969ZM11.8181 0C12.7744 0 13.615 0.644792 13.8619 1.56875L14.1265 2.88229C14.212 3.31289 14.5898 3.62735 15.0274 3.63426L18.4458 3.63437C18.8771 3.63437 19.2271 3.98437 19.2271 4.41562C19.2271 4.84687 18.8771 5.19687 18.4458 5.19687L15.0579 5.19672C15.0526 5.19682 15.0474 5.19687 15.0421 5.19687L15.0167 5.19583L4.21002 5.19675C4.20162 5.19683 4.19321 5.19687 4.18479 5.19687L4.16875 5.19583L0.78125 5.19687C0.35 5.19687 0 4.84687 0 4.41562C0 3.98437 0.35 3.63437 0.78125 3.63437L4.19896 3.63333L4.30419 3.62667C4.69616 3.57582 5.02191 3.27812 5.10146 2.88229L5.35458 1.61562C5.61187 0.644792 6.4525 0 7.40875 0H11.8181ZM11.8181 1.5625H7.40875C7.15875 1.5625 6.93896 1.73021 6.87542 1.97083L6.63271 3.18958C6.60186 3.34395 6.55694 3.49272 6.49946 3.63465H12.7277C12.6702 3.49272 12.6252 3.34395 12.5942 3.18958L12.341 1.92292C12.2879 1.73021 12.0681 1.5625 11.8181 1.5625Z" fill="#F37E33"/>
</svg>
