<svg width="13" height="11" viewBox="0 0 13 11" fill="none" xmlns="http://www.w3.org/2000/svg">
<path d="M0 5.08079C0 4.79602 0.211615 4.56068 0.486172 4.52343L0.5625 4.51829L10.4505 4.51874L6.87826 0.961096C6.65812 0.7419 6.65735 0.385745 6.87655 0.165603C7.07582 -0.0345265 7.38827 -0.0533544 7.60883 0.109562L7.67204 0.16389L12.2095 4.68189C12.2386 4.71078 12.2638 4.74205 12.2852 4.77508C12.2912 4.78502 12.2973 4.79519 12.3032 4.80556C12.3085 4.81445 12.3134 4.82368 12.318 4.83302C12.3243 4.8466 12.3305 4.86063 12.3361 4.87495C12.3407 4.88599 12.3445 4.89673 12.348 4.90755C12.3522 4.92097 12.3562 4.93527 12.3597 4.94979C12.3622 4.95993 12.3643 4.96968 12.3661 4.97948C12.3686 4.99405 12.3707 5.00913 12.3722 5.02439C12.3735 5.03603 12.3743 5.04756 12.3747 5.05911C12.3749 5.06611 12.375 5.07343 12.375 5.08079L12.3747 5.10258C12.3743 5.11362 12.3735 5.12465 12.3725 5.13566L12.375 5.08079C12.375 5.11629 12.3717 5.15102 12.3654 5.18469C12.364 5.19273 12.3622 5.20099 12.3603 5.20921C12.3563 5.22614 12.3517 5.24245 12.3464 5.25844C12.3438 5.26638 12.3407 5.27486 12.3375 5.28329C12.3309 5.30021 12.3238 5.31635 12.3159 5.33206C12.3122 5.33945 12.3082 5.34719 12.3039 5.35485C12.2968 5.36734 12.2896 5.37922 12.2819 5.39079C12.2765 5.39898 12.2706 5.4075 12.2643 5.41589L12.2594 5.42238C12.2443 5.44218 12.2278 5.46094 12.2102 5.47854L12.2096 5.47906L7.67207 9.99781C7.45195 10.217 7.09579 10.2163 6.87658 9.99617C6.67729 9.79605 6.65979 9.48352 6.82363 9.26365L6.87823 9.20067L10.449 5.64374L0.5625 5.64329C0.25184 5.64329 0 5.39145 0 5.08079Z" fill="white"/>
</svg>
